<?xml version="1.0" encoding="utf-8"?>
<!-- Generator: Adobe Illustrator 23.0.0, SVG Export Plug-In . SVG Version: 6.00 Build 0)  -->
<svg version="1.1" id="图层_1" xmlns="http://www.w3.org/2000/svg" xmlns:xlink="http://www.w3.org/1999/xlink" x="0px" y="0px"
	 viewBox="0 0 500 500" style="enable-background:new 0 0 500 500;" xml:space="preserve">
<style type="text/css">
	.st0{fill:#FFF577;}
</style>
<g>
	<path class="st0" d="M312.11,347.1c-3.82,0-6.91-2.63-7.51-6.41l-10.69-66.75c-0.11-0.69-0.51-1.08-0.74-1.12l-0.21-0.04
		l-33.13-9.34c-4.22-0.88-7.3-4.36-7.87-8.93c-0.59-4.74,1.77-9.2,5.87-11.08l0.16-0.07l35.34-13c0.22-0.14,0.46-0.48,0.56-0.96
		l10.39-51.53c0.72-3.59,3.79-6.1,7.45-6.1c3.72,0,6.79,2.55,7.48,6.21l9.57,51.37c0.09,0.51,0.35,0.86,0.58,1l36.93,13.12
		l0.16,0.07c4.14,1.84,6.56,6.27,6,11.03c-0.53,4.6-3.59,8.11-7.82,9.02l-31.37,9.2l-0.22,0.04c-0.23,0.04-0.6,0.4-0.73,1.06
		l-12.72,67.03C318.89,344.56,315.82,347.1,312.11,347.1L312.11,347.1z"/>
	<g>
		<path d="M311.73,176.3c1.35,0,2.71,0.84,3.02,2.51l9.57,51.37c0.37,1.98,1.6,3.61,3.27,4.35l37.01,13.15
			c5.04,2.23,4.26,10.49-1.08,11.5l-31.34,9.19c-2.16,0.41-3.88,2.26-4.34,4.67l-12.72,67.03c-0.32,1.67-1.67,2.5-3.02,2.5
			c-1.38,0-2.76-0.87-3.04-2.59l-10.69-66.75c-0.4-2.5-2.16-4.45-4.4-4.86l-33.1-9.34c-5.32-0.98-6.16-9.18-1.16-11.48l35.42-13.03
			c1.61-0.74,2.8-2.32,3.19-4.23l10.39-51.53C309.06,177.12,310.4,176.3,311.73,176.3 M311.73,167.23c-5.85,0-10.74,4-11.9,9.74
			l-10.05,49.86l-33.19,12.21l-0.33,0.12l-0.32,0.15c-5.91,2.72-9.32,9.05-8.48,15.77c0.8,6.37,5.3,11.44,11.27,12.77l31.01,8.75
			l10.38,64.82c0.95,5.92,5.99,10.22,11.99,10.22c5.92,0,10.82-4.06,11.93-9.88l12.37-65.17l29.35-8.61
			c5.98-1.38,10.45-6.49,11.19-12.89c0.78-6.74-2.7-13.05-8.67-15.7l-0.31-0.14l-0.32-0.12l-34.72-12.34l-9.25-49.65
			C322.58,171.31,317.67,167.23,311.73,167.23L311.73,167.23z"/>
	</g>
</g>
<g>
	<path class="st0" d="M213.73,374.63c-3.32,0-5.99-1.96-6.65-4.89l-7.62-33.92l-24-4.82c-3.88-0.58-6.69-3.34-7.02-6.91
		c-0.33-3.51,1.89-6.67,5.52-7.86l0.13-0.04l25.41-6.66l7.39-26.1c0.78-2.74,3.41-4.58,6.56-4.58c3.21,0,5.86,1.89,6.6,4.69
		l6.79,25.98l26.56,6.72l0.13,0.04c3.67,1.16,5.92,4.31,5.62,7.83c-0.31,3.58-3.1,6.36-6.98,6.96l-22.75,4.75l-9.09,34.13
		C219.58,372.75,216.93,374.63,213.73,374.63C213.74,374.63,213.74,374.63,213.73,374.63z"/>
	<g>
		<path d="M213.46,283.38c0.99,0,1.98,0.44,2.21,1.31l7.01,26.79c0.27,1.03,1.17,1.88,2.39,2.27l27.1,6.86
			c3.69,1.17,3.12,5.47-0.79,6l-22.94,4.79c-1.58,0.21-2.84,1.18-3.18,2.44l-9.31,34.96c-0.23,0.87-1.22,1.3-2.21,1.3
			c-1.01,0-2.02-0.45-2.22-1.35l-7.82-34.82c-0.29-1.31-1.58-2.32-3.22-2.54l-24.24-4.87c-3.9-0.51-4.51-4.79-0.85-5.99l25.94-6.8
			c1.18-0.39,2.05-1.21,2.34-2.21l7.61-26.88C211.5,283.8,212.48,283.38,213.46,283.38 M213.46,274.31c-5.2,0-9.59,3.17-10.93,7.88
			l-6.68,23.61l-22.77,5.96l-0.26,0.07l-0.26,0.09c-5.6,1.83-9.15,7.01-8.63,12.59c0.52,5.57,4.91,10.03,10.74,10.96l21.02,4.22
			l6.98,31.05c1.12,4.96,5.67,8.43,11.07,8.43c5.28,0,9.69-3.23,10.97-8.04l8.37-31.43l19.91-4.16c5.83-0.96,10.2-5.44,10.68-11.03
			c0.48-5.6-3.12-10.76-8.77-12.55l-0.25-0.08l-0.26-0.06l-23.83-6.03l-6.12-23.39C223.18,277.56,218.76,274.31,213.46,274.31
			L213.46,274.31z"/>
	</g>
</g>
<g>
	<path class="st0" d="M164,250.06c-3.55,0-6.49-2.23-7.15-5.42l-9.47-46.18c-0.04-0.02-0.1-0.03-0.17-0.04l-0.17-0.02l-29.52-6.5
		c-4.19-0.68-7.25-3.77-7.66-7.76c-0.4-3.94,1.98-7.54,5.92-8.95l0.14-0.05l31.47-9.03l9.2-35.62c0.79-3.06,3.63-5.11,7.07-5.11
		c3.5,0,6.35,2.1,7.1,5.23l8.48,35.49l32.89,9.12l0.13,0.05c3.98,1.38,6.4,4.96,6.03,8.93c-0.37,4-3.42,7.11-7.61,7.81l-27.95,6.4
		l-0.18,0.03c-0.08,0.01-0.14,0.03-0.18,0.05l-11.28,46.39C170.33,247.97,167.48,250.06,164,250.06z"/>
	<g>
		<path d="M163.66,129.9c1.21,0,2.41,0.58,2.69,1.74l8.53,35.72c0.33,1.37,1.42,2.51,2.91,3.03l32.99,9.15c4.49,1.55,3.8,7.3-0.96,8
			l-27.93,6.39c-1.93,0.28-3.46,1.57-3.87,3.25l-11.34,46.61c-0.28,1.16-1.48,1.74-2.69,1.74c-1.23,0-2.46-0.6-2.71-1.8l-9.52-46.42
			c-0.36-1.74-1.93-3.1-3.92-3.38l-29.5-6.49c-4.74-0.68-5.49-6.39-1.04-7.98l31.57-9.06c1.44-0.52,2.5-1.61,2.84-2.94l9.26-35.83
			C161.27,130.47,162.47,129.9,163.66,129.9 M163.66,120.83c-5.54,0-10.15,3.42-11.46,8.51l-8.56,33.11l-28.84,8.28l-0.28,0.08
			l-0.28,0.1c-5.94,2.13-9.52,7.63-8.9,13.68c0.61,6.02,5.13,10.7,11.31,11.76l26.87,5.91l8.88,43.29
			c1.09,5.33,5.86,9.05,11.59,9.05c5.53,0,10.26-3.56,11.5-8.66l10.62-43.66l25.46-5.82c6.08-1.09,10.67-5.9,11.23-11.84
			c0.57-6.08-3.07-11.56-9.06-13.63l-0.27-0.09l-0.27-0.08l-30.18-8.37l-7.85-32.89C173.95,124.41,169.21,120.83,163.66,120.83
			L163.66,120.83z"/>
	</g>
</g>
</svg>
